<svg xmlns="http://www.w3.org/2000/svg" width="108" height="18" viewBox="0 0 108 18">
  <defs>
    <style>
      .cls-1 {
        fill: #fff;
        fill-rule: evenodd;
      }
    </style>
  </defs>
  <path id="ТЕХНОМАРТ" class="cls-1" d="M0.421,2.306H4.2V18.055H6.332V2.306h3.783V0.556H0.421v1.75Zm13.827,7.5h5.2V8.056h-5.2V2.306h5.911V0.556H12.12v17.5h8.039v-1.75H14.248v-6.5Zm12.713-2.25-2.6-7H22.233l3.192,8.5-3.547,9h2.128l2.956-7.5,2.955,7.5h2.128l-3.547-9,3.192-8.5H29.562Zm14.241-7V8.306H36.237V0.556H34.109v17.5h2.128v-8H41.2v8H43.33V0.556H41.2Zm7.673,0.175a3.778,3.778,0,0,0-1.6,1.45,7.94,7.94,0,0,0-1,2.762,23.084,23.084,0,0,0-.343,4.362,23.078,23.078,0,0,0,.343,4.362,7.933,7.933,0,0,0,1,2.762,3.773,3.773,0,0,0,1.6,1.45,5.6,5.6,0,0,0,4.28,0,3.777,3.777,0,0,0,1.6-1.45,7.949,7.949,0,0,0,1.005-2.762A23.121,23.121,0,0,0,56.1,9.306a23.126,23.126,0,0,0-.343-4.362A7.956,7.956,0,0,0,54.75,2.181a3.782,3.782,0,0,0-1.6-1.45A5.6,5.6,0,0,0,48.875.731ZM49.9,16.48a2.61,2.61,0,0,1-.946-1.175,9.091,9.091,0,0,1-.65-2.3,22.605,22.605,0,0,1-.248-3.7,22.609,22.609,0,0,1,.248-3.7,9.1,9.1,0,0,1,.65-2.3A2.613,2.613,0,0,1,49.9,2.131a2.063,2.063,0,0,1,2.223,0,2.618,2.618,0,0,1,.946,1.175,9.109,9.109,0,0,1,.65,2.3,22.6,22.6,0,0,1,.248,3.7,22.6,22.6,0,0,1-.248,3.7,9.1,9.1,0,0,1-.65,2.3,2.615,2.615,0,0,1-.946,1.175A2.063,2.063,0,0,1,49.9,16.48Zm16.865-.675L70.2,5.056h0.118l0.709,13h2.128l-0.946-17.5h-2.6l-3.854,12H65.657l-3.854-12H59.2l-0.946,17.5h2.128l0.709-13h0.118l3.428,10.749h2.128Zm16.253-2.25,1.064,4.5h2.128l-4.019-17.5H79.12L75.1,18.055h2.128l1.064-4.5h4.729Zm-0.355-1.75h-4.02l1.962-8.75H80.7Zm7.784-.625V1.931h1.655a4.03,4.03,0,0,1,1.383.212,2.023,2.023,0,0,1,.958.738A3.63,3.63,0,0,1,95,4.306a11.924,11.924,0,0,1,.177,2.25A11.924,11.924,0,0,1,95,8.806a3.631,3.631,0,0,1-.556,1.425,2.019,2.019,0,0,1-.958.737,4.017,4.017,0,0,1-1.383.213H90.45Zm0,1.5a10.7,10.7,0,0,0,1.135.175,11.418,11.418,0,0,0,1.23.075,5.723,5.723,0,0,0,2-.313,3.049,3.049,0,0,0,1.4-1.05,5.06,5.06,0,0,0,.828-1.962,14.393,14.393,0,0,0,.272-3.05,13.17,13.17,0,0,0-.284-2.975,4.549,4.549,0,0,0-.9-1.925A3.39,3.39,0,0,0,94.517.619,8.115,8.115,0,0,0,92.105.307a16.116,16.116,0,0,0-1.974.112,10.632,10.632,0,0,0-1.809.387V18.055H90.45V12.681ZM98.7,2.306h3.784V18.055h2.128V2.306h3.783V0.556H98.7v1.75Z" transform="translate(-0.406 -0.313)"/>
</svg>
